<svg
  viewBox="0 0 640 400"
  data-background-color="#ffffff"
  preserveAspectRatio="xMidYMid meet"
  height="400"
  width="640"
  xmlns="http://www.w3.org/2000/svg"
  xmlns:xlink="http://www.w3.org/1999/xlink">
  <rect
    width="640"
    height="400"
    x="0"
    y="0"
    opacity="1"
    fill="#ffffff"
    data-fill-palette-color="background"
    id="background"></rect>
  <g
    id="tight-bounds"
    transform="matrix(1,0,0,1,122.24000000000001,180.13938140568132)">
    <svg
      viewBox="0 0 395.52 39.72123718863739"
      height="39.72123718863739"
      width="395.52">
      <g>
        <svg
          viewBox="0 0 584.1047058105469 58.66040039062499"
          height="39.72123718863739"
          width="395.52">
          <g>
            <svg
              viewBox="0 0 584.1047058105469 58.66040039062499"
              height="58.66040039062499"
              width="584.1047058105469">
              <g>
                <svg
                  viewBox="0 0 584.1047058105469 58.66040039062499"
                  height="58.66040039062499"
                  width="584.1047058105469">
                  <g>
                    <svg
                      viewBox="0 0 584.1047058105469 58.66040039062499"
                      height="58.66040039062499"
                      width="584.1047058105469">
                      <g>
                        <svg>
                          <g></g>
                          <g></g>
                        </svg>
                      </g>
                      <g>
                        <svg>
                          <g><svg></svg></g>
                          <g></g>
                        </svg>
                      </g>
                      <g id="text-0">
                        <svg
                          viewBox="0 0 584.1047058105469 58.66040039062499"
                          height="58.66040039062499"
                          width="584.1047058105469">
                          <g transform="matrix(1,0,0,1,0,11.202758789062496)">
                            <svg
                              width="271.8017578125"
                              viewBox="1.340000033378601 -35.5 271.7900085449219 36.2599983215332"
                              height="36.2548828125"
                              data-palette-color="#113f67">
                              <path
                                d="M27.49-9.69L31.2-3.59Q28.76-1.49 25.73-0.37 22.71 0.76 19.46 0.76L19.46 0.76Q16.97 0.76 14.66 0.11 12.35-0.54 10.34-1.72 8.33-2.91 6.67-4.57 5-6.23 3.82-8.24 2.64-10.25 1.99-12.56 1.34-14.87 1.34-17.36L1.34-17.36Q1.34-19.85 1.99-22.17 2.64-24.49 3.82-26.5 5-28.52 6.67-30.18 8.33-31.84 10.34-33.02 12.35-34.2 14.66-34.85 16.97-35.5 19.46-35.5L19.46-35.5Q22.71-35.5 25.73-34.39 28.76-33.28 31.2-31.15L31.2-31.15 27.49-25.05Q25.95-26.71 23.85-27.6 21.75-28.49 19.46-28.49L19.46-28.49Q17.14-28.49 15.11-27.61 13.09-26.73 11.57-25.23 10.06-23.73 9.18-21.69 8.3-19.65 8.3-17.36L8.3-17.36Q8.3-15.06 9.18-13.05 10.06-11.04 11.57-9.52 13.09-8.01 15.11-7.13 17.14-6.25 19.46-6.25L19.46-6.25Q21.75-6.25 23.85-7.14 25.95-8.03 27.49-9.69L27.49-9.69ZM68.55-17.36L68.55-17.36Q68.55-14.87 67.91-12.56 67.26-10.25 66.09-8.24 64.91-6.23 63.25-4.57 61.59-2.91 59.59-1.72 57.59-0.54 55.27 0.11 52.95 0.76 50.46 0.76L50.46 0.76Q47.97 0.76 45.66 0.11 43.36-0.54 41.34-1.72 39.33-2.91 37.67-4.57 36.01-6.23 34.82-8.24 33.64-10.25 32.99-12.56 32.35-14.87 32.35-17.36L32.35-17.36Q32.35-19.85 32.99-22.17 33.64-24.49 34.82-26.49 36.01-28.49 37.67-30.15 39.33-31.81 41.34-32.98 43.36-34.16 45.66-34.8 47.97-35.45 50.46-35.45L50.46-35.45Q52.95-35.45 55.27-34.8 57.59-34.16 59.59-32.98 61.59-31.81 63.25-30.15 64.91-28.49 66.09-26.49 67.26-24.49 67.91-22.17 68.55-19.85 68.55-17.36ZM61.59-17.36L61.59-17.36Q61.59-19.65 60.72-21.69 59.84-23.73 58.33-25.23 56.83-26.73 54.79-27.61 52.76-28.49 50.46-28.49L50.46-28.49Q48.14-28.49 46.12-27.61 44.09-26.73 42.58-25.23 41.06-23.73 40.18-21.69 39.3-19.65 39.3-17.36L39.3-17.36Q39.3-15.06 40.18-13.05 41.06-11.04 42.58-9.52 44.09-8.01 46.12-7.13 48.14-6.25 50.46-6.25L50.46-6.25Q52.76-6.25 54.79-7.13 56.83-8.01 58.33-9.52 59.84-11.04 60.72-13.05 61.59-15.06 61.59-17.36ZM107.88-25L107.88 0 100.9 0 100.9-25Q100.9-25.73 100.62-26.37 100.34-27 99.86-27.48 99.38-27.95 98.75-28.22 98.12-28.49 97.38-28.49L97.38-28.49Q96.65-28.49 96.02-28.22 95.38-27.95 94.9-27.48 94.43-27 94.16-26.37 93.89-25.73 93.89-25L93.89-25 93.89 0 86.88 0 86.88-25Q86.88-25.73 86.62-26.37 86.35-27 85.87-27.48 85.4-27.95 84.76-28.22 84.13-28.49 83.39-28.49L83.39-28.49Q82.66-28.49 82.03-28.22 81.39-27.95 80.92-27.48 80.44-27 80.17-26.37 79.9-25.73 79.9-25L79.9-25 79.9 0 72.9 0 72.9-25Q72.9-27.17 73.71-29.09 74.53-31.01 75.96-32.43 77.39-33.86 79.3-34.68 81.22-35.5 83.39-35.5L83.39-35.5Q85.35-35.5 87.15-34.8 88.96-34.11 90.4-32.79L90.4-32.79Q91.84-34.11 93.64-34.8 95.43-35.5 97.38-35.5L97.38-35.5Q99.56-35.5 101.47-34.68 103.39-33.86 104.82-32.43 106.25-31.01 107.06-29.09 107.88-27.17 107.88-25L107.88-25ZM148.87-25L148.87 0 141.89 0 141.89-25Q141.89-25.73 141.61-26.37 141.33-27 140.85-27.48 140.37-27.95 139.74-28.22 139.1-28.49 138.37-28.49L138.37-28.49Q137.64-28.49 137-28.22 136.37-27.95 135.89-27.48 135.42-27 135.15-26.37 134.88-25.73 134.88-25L134.88-25 134.88 0 127.87 0 127.87-25Q127.87-25.73 127.6-26.37 127.34-27 126.86-27.48 126.38-27.95 125.75-28.22 125.11-28.49 124.38-28.49L124.38-28.49Q123.65-28.49 123.01-28.22 122.38-27.95 121.9-27.48 121.43-27 121.16-26.37 120.89-25.73 120.89-25L120.89-25 120.89 0 113.88 0 113.88-25Q113.88-27.17 114.7-29.09 115.52-31.01 116.95-32.43 118.38-33.86 120.29-34.68 122.21-35.5 124.38-35.5L124.38-35.5Q126.34-35.5 128.14-34.8 129.95-34.11 131.39-32.79L131.39-32.79Q132.83-34.11 134.62-34.8 136.42-35.5 138.37-35.5L138.37-35.5Q140.54-35.5 142.46-34.68 144.38-33.86 145.81-32.43 147.23-31.01 148.05-29.09 148.87-27.17 148.87-25L148.87-25ZM179.12-7.01L179.12 0 155.12 0 155.12-35.01 179.12-35.01 179.12-28 162.12-28 162.12-21 173.62-21 173.62-13.99 162.12-13.99 162.12-7.01 179.12-7.01ZM212.02-35.01L212.02 0 204.53 0 191.03-23.05 191.03 0 184.02 0 184.02-35.01 191.52-35.01 205.02-11.94 205.02-35.01 212.02-35.01ZM233.21-28L233.21 0 226.23 0 226.23-28 215.71-28 215.71-35.01 243.71-35.01 243.71-28 233.21-28ZM245.12-24.51L245.12-24.51Q245.12-26.68 245.95-28.59 246.78-30.49 248.21-31.92 249.64-33.35 251.55-34.18 253.45-35.01 255.62-35.01L255.62-35.01 271.69-35.01 271.69-28 255.62-28Q254.89-28 254.25-27.73 253.62-27.47 253.14-26.99 252.67-26.51 252.4-25.88 252.13-25.24 252.13-24.51L252.13-24.51Q252.13-23.78 252.4-23.13 252.67-22.49 253.14-22.01 253.62-21.53 254.25-21.26 254.89-21 255.62-21L255.62-21 262.63-21Q264.8-21 266.72-20.18 268.63-19.36 270.06-17.93 271.49-16.5 272.31-14.59 273.13-12.67 273.13-10.5L273.13-10.5Q273.13-8.33 272.31-6.42 271.49-4.52 270.06-3.09 268.63-1.66 266.72-0.83 264.8 0 262.63 0L262.63 0 247.08 0 247.08-7.01 262.63-7.01Q263.36-7.01 264-7.28 264.63-7.54 265.11-8.02 265.58-8.5 265.85-9.13 266.12-9.77 266.12-10.5L266.12-10.5Q266.12-11.23 265.85-11.87 265.58-12.5 265.11-12.98 264.63-13.45 264-13.72 263.36-13.99 262.63-13.99L262.63-13.99 255.62-13.99Q253.45-13.99 251.55-14.82 249.64-15.65 248.21-17.08 246.78-18.51 245.95-20.42 245.12-22.34 245.12-24.51Z"
                                opacity="1"
                                transform="matrix(1,0,0,1,0,0)"
                                fill="#113f67"
                                class="undefined-o-0"></path>
                            </svg>
                          </g>
                          <g>
                            <svg
                              xmlns="http://www.w3.org/2000/svg"
                              xmlns:xlink="http://www.w3.org/1999/xlink"
                              version="1.1"
                              x="285.651123046875"
                              y="0"
                              viewBox="0 0 87.5 100"
                              style="enable-background: new 0 0 87.5 100"
                              xml:space="preserve"
                              width="51.327850341796875"
                              height="58.66040039062499"
                              class="icon-c-0"
                              data-fill-palette-color="accent"
                              id="c-0">
                              <path
                                d="M43.75 12.5C60.986 12.5 75 26.514 75 43.75S60.986 75 43.75 75c-2.209 0-4.602-0.33-7.312-0.988l-5.322-1.318-4.564 3.027-1.429 0.939 0.013-2.137 0.023-5.163-3.625-3.675C15.711 59.777 12.5 51.99 12.5 43.75 12.5 26.514 26.514 12.5 43.75 12.5M43.75 0C19.592 0 0 19.592 0 43.75c0 11.975 4.834 22.803 12.635 30.713L12.5 100l20.947-13.855c3.32 0.818 6.738 1.355 10.303 1.355 24.158 0 43.75-19.592 43.75-43.75S67.908 0 43.75 0L43.75 0z"
                                fill="#87c0cd"
                                data-fill-palette-color="accent"></path>
                            </svg>
                          </g>
                          <g
                            transform="matrix(1,0,0,1,350.8283386230469,11.202758789062496)">
                            <svg
                              width="233.2763671875"
                              viewBox="3 -35.5 233.25999450683594 36.2599983215332"
                              height="36.2548828125"
                              data-palette-color="#113f67">
                              <path
                                d="M37.99-25L37.99 0 31.01 0 31.01-25Q31.01-25.73 30.73-26.37 30.44-27 29.97-27.48 29.49-27.95 28.86-28.22 28.22-28.49 27.49-28.49L27.49-28.49Q26.76-28.49 26.12-28.22 25.49-27.95 25.01-27.48 24.54-27 24.27-26.37 24-25.73 24-25L24-25 24 0 16.99 0 16.99-25Q16.99-25.73 16.72-26.37 16.46-27 15.98-27.48 15.5-27.95 14.87-28.22 14.23-28.49 13.5-28.49L13.5-28.49Q12.77-28.49 12.13-28.22 11.5-27.95 11.02-27.48 10.55-27 10.28-26.37 10.01-25.73 10.01-25L10.01-25 10.01 0 3 0 3-25Q3-27.17 3.82-29.09 4.64-31.01 6.07-32.43 7.5-33.86 9.41-34.68 11.33-35.5 13.5-35.5L13.5-35.5Q15.45-35.5 17.26-34.8 19.07-34.11 20.51-32.79L20.51-32.79Q21.95-34.11 23.74-34.8 25.54-35.5 27.49-35.5L27.49-35.5Q29.66-35.5 31.58-34.68 33.5-33.86 34.92-32.43 36.35-31.01 37.17-29.09 37.99-27.17 37.99-25L37.99-25ZM50.83-13.99L64.84-13.99 64.84-21Q64.84-22.44 64.29-23.72 63.74-25 62.79-25.95 61.84-26.9 60.56-27.45 59.27-28 57.83-28L57.83-28Q56.39-28 55.11-27.45 53.83-26.9 52.88-25.95 51.93-25 51.38-23.72 50.83-22.44 50.83-21L50.83-21 50.83-13.99ZM71.85-21L71.85 0 64.84 0 64.84-7.01 50.83-7.01 50.83 0 43.85 0 43.85-21Q43.85-23.9 44.94-26.45 46.04-29 47.93-30.91 49.83-32.81 52.38-33.91 54.93-35.01 57.83-35.01L57.83-35.01Q60.74-35.01 63.29-33.91 65.84-32.81 67.75-30.91 69.65-29 70.75-26.45 71.85-23.9 71.85-21L71.85-21ZM105.93-35.01L105.93 0 98.43 0 84.93-23.05 84.93 0 77.92 0 77.92-35.01 85.42-35.01 98.92-11.94 98.92-35.01 105.93-35.01ZM119.01-13.99L133.02-13.99 133.02-21Q133.02-22.44 132.48-23.72 131.93-25 130.97-25.95 130.02-26.9 128.74-27.45 127.46-28 126.02-28L126.02-28Q124.58-28 123.3-27.45 122.01-26.9 121.06-25.95 120.11-25 119.56-23.72 119.01-22.44 119.01-21L119.01-21 119.01-13.99ZM140.03-21L140.03 0 133.02 0 133.02-7.01 119.01-7.01 119.01 0 112.03 0 112.03-21Q112.03-23.9 113.13-26.45 114.23-29 116.12-30.91 118.01-32.81 120.56-33.91 123.11-35.01 126.02-35.01L126.02-35.01Q128.92-35.01 131.47-33.91 134.03-32.81 135.93-30.91 137.83-29 138.93-26.45 140.03-23.9 140.03-21L140.03-21ZM173.96-17.36L173.96-3.54Q171.52-1.46 168.52-0.35 165.52 0.76 162.27 0.76L162.27 0.76Q159.78 0.76 157.47 0.11 155.17-0.54 153.16-1.72 151.16-2.91 149.5-4.55 147.84-6.2 146.67-8.22 145.5-10.23 144.85-12.55 144.2-14.87 144.2-17.36L144.2-17.36Q144.2-19.85 144.85-22.14 145.5-24.44 146.67-26.45 147.84-28.47 149.5-30.11 151.16-31.76 153.16-32.93 155.17-34.11 157.47-34.75 159.78-35.4 162.27-35.4L162.27-35.4Q165.52-35.4 168.52-34.29 171.52-33.18 173.96-31.1L173.96-31.1 170.3-25Q168.72-26.61 166.64-27.53 164.57-28.44 162.27-28.44L162.27-28.44Q159.98-28.44 157.96-27.56 155.95-26.68 154.43-25.18 152.92-23.68 152.04-21.67 151.16-19.65 151.16-17.36L151.16-17.36Q151.16-15.04 152.04-13.01 152.92-10.99 154.43-9.47 155.95-7.96 157.96-7.08 159.98-6.2 162.27-6.2L162.27-6.2Q163.59-6.2 164.83-6.52 166.08-6.84 167.2-7.4L167.2-7.4 167.2-17.36 173.96-17.36ZM203.36-7.01L203.36 0 179.36 0 179.36-35.01 203.36-35.01 203.36-28 186.36-28 186.36-21 197.86-21 197.86-13.99 186.36-13.99 186.36-7.01 203.36-7.01ZM222.28-28L215.27-28 215.27-13.99 222.28-13.99Q223.72-13.99 224.99-14.54 226.25-15.09 227.21-16.04 228.16-16.99 228.71-18.27 229.26-19.56 229.26-21L229.26-21Q229.26-22.44 228.71-23.72 228.16-25 227.21-25.95 226.25-26.9 224.99-27.45 223.72-28 222.28-28L222.28-28ZM215.27-7.01L215.27 0 208.26 0 208.26-35.01 222.28-35.01Q224.2-35.01 225.99-34.51 227.77-34.01 229.32-33.09 230.87-32.18 232.15-30.9 233.43-29.61 234.35-28.05 235.26-26.49 235.76-24.71 236.26-22.92 236.26-21L236.26-21Q236.26-19.19 235.81-17.48 235.36-15.77 234.52-14.23 233.68-12.7 232.46-11.4 231.24-10.11 229.72-9.16L229.72-9.16 233.6 0 226.16 0 223.11-7.06 215.27-7.01Z"
                                opacity="1"
                                transform="matrix(1,0,0,1,0,0)"
                                fill="#113f67"
                                class="undefined-o-1"></path>
                            </svg>
                          </g>
                        </svg>
                      </g>
                    </svg>
                  </g>
                </svg>
              </g>
            </svg>
          </g>
          <g></g>
        </svg>
      </g>
      <defs></defs>
    </svg>
    <rect
      width="395.52"
      height="39.72123718863739"
      fill="none"
      stroke="none"
      visibility="hidden"></rect>
  </g>
</svg>
